<svg xmlns="http://www.w3.org/2000/svg" width="125" height="125" fill="none" viewBox="0 0 125 125"><path fill="#000" d="M20 22C18.3431 22 17 23.3432 17 25C17 26.6569 18.3431 28 20 28H31.5625L41.875 76.6561C42.283 78.4877 43.4834 80.0121 45 79.9999H95C96.5849 80.0219 98.0427 78.585 98.0427 76.9999C98.0427 75.4148 96.5849 73.9775 95 73.9999H47.4375L46.1562 67.9999H99C100.343 67.9899 101.612 66.9669 101.906 65.6562L108.906 35.6563C109.296 33.9152 107.784 32.0128 106 32H38.5625L36.9375 24.375C36.6536 23.0429 35.362 21.9986 34 22H20ZM39.8125 38H55.4375L56.9375 47H41.7188L39.8125 38ZM61.5625 38H80.4375L78.9375 47H63.0625L61.5625 38ZM86.5625 38H102.219L100.125 47H85.0625L86.5625 38ZM43 53H57.9375L59.4375 61.9999H44.9062L43 53ZM64.0625 53H77.9375L76.4375 61.9999H65.5625L64.0625 53ZM84.0625 53H98.7188L96.625 61.9999H82.5625L84.0625 53ZM56 83.9999C50.5127 83.9999 46 88.5124 46 93.9998C46 99.4871 50.5127 104 56 104C61.4873 104 66 99.4871 66 93.9998C66 88.5125 61.4873 83.9999 56 83.9999V83.9999ZM84 83.9999C78.5127 83.9999 74 88.5124 74 93.9998C74 99.4871 78.5127 104 84 104C89.4873 104 94 99.4871 94 93.9998C94 88.5125 89.4873 83.9999 84 83.9999V83.9999ZM56 89.9998C58.2447 89.9998 60 91.7551 60 93.9998C60 96.2444 58.2447 97.9998 56 97.9998C53.7555 97.9998 52 96.2444 52 93.9998C52 91.7551 53.7555 89.9998 56 89.9998ZM84 89.9998C86.2447 89.9998 88 91.7551 88 93.9998C88 96.2444 86.2447 97.9998 84 97.9998C81.7555 97.9998 80 96.2444 80 93.9998C80 91.7551 81.7555 89.9998 84 89.9998Z"/></svg>